<?xml version="1.0" encoding="UTF-8" standalone="no"?>
<svg
   xmlns:dc="http://purl.org/dc/elements/1.1/"
   xmlns:cc="http://creativecommons.org/ns#"
   xmlns:rdf="http://www.w3.org/1999/02/22-rdf-syntax-ns#"
   xmlns:svg="http://www.w3.org/2000/svg"
   xmlns="http://www.w3.org/2000/svg"
   version="1.1"
   id="svg2"
   viewBox="0 0 67.067052 71.511541"
   height="20.182146mm"
   width="18.927813mm">
  <defs
     id="defs4" />
  <metadata
     id="metadata7">
    <rdf:RDF>
      <cc:Work
         rdf:about="">
        <dc:format>image/svg+xml</dc:format>
        <dc:type
           rdf:resource="http://purl.org/dc/dcmitype/StillImage" />
        <dc:title></dc:title>
      </cc:Work>
    </rdf:RDF>
  </metadata>
  <g
     transform="translate(-70.727026,-73.494773)"
     id="layer1">
    <path
       transform="matrix(0.98569859,0,0,0.99459573,0.99702171,0.78494308)"
       d="m 128.81758,131.18077 -17.54635,-8.34059 -6.50946,18.30484 -6.509451,-18.30484 -17.546352,8.34059 8.340593,-17.54635 -18.304834,-6.50945 18.304834,-6.50945 -8.340593,-17.546356 17.54635,8.340594 6.509453,-18.304835 6.50946,18.304834 17.54635,-8.340593 -8.3406,17.546346 18.30484,6.50946 -18.30484,6.50945 z"
       id="path3342"
       style="fill:#d4ff3f;fill-opacity:1;fill-rule:evenodd;stroke:#000000;stroke-width:0;stroke-linecap:butt;stroke-linejoin:miter;stroke-miterlimit:4;stroke-dasharray:none;stroke-opacity:1" />
    <ellipse
       ry="21.371052"
       rx="21.179737"
       cy="107.33086"
       cx="104.26044"
       id="path3336"
       style="fill:#309c21;fill-opacity:1;fill-rule:evenodd;stroke:#003c27;stroke-width:0.99014044;stroke-linecap:butt;stroke-linejoin:miter;stroke-miterlimit:4;stroke-dasharray:none;stroke-opacity:1" />
    <ellipse
       ry="14.597535"
       rx="14.423757"
       cy="103.52233"
       cx="107.24045"
       id="path4161"
       style="fill:#3ef148;fill-opacity:1;stroke-width:1;stroke-miterlimit:4;stroke-dasharray:none" />
    <rect
       y="125.5885"
       x="93.658104"
       height="11.143292"
       width="21.204672"
       id="rect3338"
       style="fill:#3c4a50;fill-opacity:1;fill-rule:evenodd;stroke:#18181f;stroke-width:0.99014044;stroke-linecap:butt;stroke-linejoin:miter;stroke-miterlimit:4;stroke-dasharray:none;stroke-opacity:1" />
    <path
       id="rect3352"
       d="m 93.660382,137.16235 0,1.20883 3.591674,6.13775 14.017734,0 3.59083,-6.13606 0,-1.21052 -21.200238,0 z"
       style="fill:#374344;fill-opacity:1;fill-rule:evenodd;stroke:#1f1f22;stroke-width:0.99476498;stroke-linecap:butt;stroke-linejoin:miter;stroke-miterlimit:4;stroke-dasharray:none;stroke-opacity:1" />
  </g>
</svg>
